%TF.GenerationSoftware,KiCad,Pcbnew,7.0.5*%
%TF.CreationDate,2023-07-30T01:34:42+05:30*%
%TF.ProjectId,STM32F4_test1,53544d33-3246-4345-9f74-657374312e6b,rev?*%
%TF.SameCoordinates,Original*%
%TF.FileFunction,Copper,L1,Top*%
%TF.FilePolarity,Positive*%
%FSLAX46Y46*%
G04 Gerber Fmt 4.6, Leading zero omitted, Abs format (unit mm)*
G04 Created by KiCad (PCBNEW 7.0.5) date 2023-07-30 01:34:42*
%MOMM*%
%LPD*%
G01*
G04 APERTURE LIST*
G04 Aperture macros list*
%AMRoundRect*
0 Rectangle with rounded corners*
0 $1 Rounding radius*
0 $2 $3 $4 $5 $6 $7 $8 $9 X,Y pos of 4 corners*
0 Add a 4 corners polygon primitive as box body*
4,1,4,$2,$3,$4,$5,$6,$7,$8,$9,$2,$3,0*
0 Add four circle primitives for the rounded corners*
1,1,$1+$1,$2,$3*
1,1,$1+$1,$4,$5*
1,1,$1+$1,$6,$7*
1,1,$1+$1,$8,$9*
0 Add four rect primitives between the rounded corners*
20,1,$1+$1,$2,$3,$4,$5,0*
20,1,$1+$1,$4,$5,$6,$7,0*
20,1,$1+$1,$6,$7,$8,$9,0*
20,1,$1+$1,$8,$9,$2,$3,0*%
G04 Aperture macros list end*
%TA.AperFunction,SMDPad,CuDef*%
%ADD10R,0.740000X2.400000*%
%TD*%
%TA.AperFunction,ComponentPad*%
%ADD11RoundRect,0.200000X0.200000X0.450000X-0.200000X0.450000X-0.200000X-0.450000X0.200000X-0.450000X0*%
%TD*%
%TA.AperFunction,ComponentPad*%
%ADD12O,0.800000X1.300000*%
%TD*%
%TA.AperFunction,SMDPad,CuDef*%
%ADD13R,5.500000X2.150000*%
%TD*%
%TA.AperFunction,SMDPad,CuDef*%
%ADD14RoundRect,0.140000X0.140000X0.170000X-0.140000X0.170000X-0.140000X-0.170000X0.140000X-0.170000X0*%
%TD*%
%TA.AperFunction,SMDPad,CuDef*%
%ADD15RoundRect,0.250000X0.325000X0.650000X-0.325000X0.650000X-0.325000X-0.650000X0.325000X-0.650000X0*%
%TD*%
%TA.AperFunction,ComponentPad*%
%ADD16C,0.900000*%
%TD*%
%TA.AperFunction,ComponentPad*%
%ADD17C,8.600000*%
%TD*%
%TA.AperFunction,SMDPad,CuDef*%
%ADD18RoundRect,0.135000X0.135000X0.185000X-0.135000X0.185000X-0.135000X-0.185000X0.135000X-0.185000X0*%
%TD*%
%TA.AperFunction,SMDPad,CuDef*%
%ADD19RoundRect,0.218750X0.381250X-0.218750X0.381250X0.218750X-0.381250X0.218750X-0.381250X-0.218750X0*%
%TD*%
%TA.AperFunction,SMDPad,CuDef*%
%ADD20RoundRect,0.147500X-0.147500X-0.172500X0.147500X-0.172500X0.147500X0.172500X-0.147500X0.172500X0*%
%TD*%
%TA.AperFunction,SMDPad,CuDef*%
%ADD21RoundRect,0.200000X-0.275000X0.200000X-0.275000X-0.200000X0.275000X-0.200000X0.275000X0.200000X0*%
%TD*%
%TA.AperFunction,SMDPad,CuDef*%
%ADD22RoundRect,0.150000X0.512500X0.150000X-0.512500X0.150000X-0.512500X-0.150000X0.512500X-0.150000X0*%
%TD*%
%TA.AperFunction,SMDPad,CuDef*%
%ADD23RoundRect,0.200000X0.275000X-0.200000X0.275000X0.200000X-0.275000X0.200000X-0.275000X-0.200000X0*%
%TD*%
%TA.AperFunction,SMDPad,CuDef*%
%ADD24RoundRect,0.140000X-0.140000X-0.170000X0.140000X-0.170000X0.140000X0.170000X-0.140000X0.170000X0*%
%TD*%
%TA.AperFunction,SMDPad,CuDef*%
%ADD25RoundRect,0.218750X0.256250X-0.218750X0.256250X0.218750X-0.256250X0.218750X-0.256250X-0.218750X0*%
%TD*%
%TA.AperFunction,ComponentPad*%
%ADD26R,2.400000X2.400000*%
%TD*%
%TA.AperFunction,ComponentPad*%
%ADD27C,2.400000*%
%TD*%
%TA.AperFunction,SMDPad,CuDef*%
%ADD28RoundRect,0.225000X-0.225000X-0.250000X0.225000X-0.250000X0.225000X0.250000X-0.225000X0.250000X0*%
%TD*%
%TA.AperFunction,SMDPad,CuDef*%
%ADD29R,1.200000X1.400000*%
%TD*%
%TA.AperFunction,SMDPad,CuDef*%
%ADD30RoundRect,0.218750X0.218750X0.256250X-0.218750X0.256250X-0.218750X-0.256250X0.218750X-0.256250X0*%
%TD*%
%TA.AperFunction,SMDPad,CuDef*%
%ADD31RoundRect,0.150000X0.150000X-0.512500X0.150000X0.512500X-0.150000X0.512500X-0.150000X-0.512500X0*%
%TD*%
%TA.AperFunction,SMDPad,CuDef*%
%ADD32RoundRect,0.225000X-0.225000X-0.375000X0.225000X-0.375000X0.225000X0.375000X-0.225000X0.375000X0*%
%TD*%
%TA.AperFunction,SMDPad,CuDef*%
%ADD33RoundRect,0.140000X0.170000X-0.140000X0.170000X0.140000X-0.170000X0.140000X-0.170000X-0.140000X0*%
%TD*%
%TA.AperFunction,SMDPad,CuDef*%
%ADD34RoundRect,0.250000X-0.375000X-0.625000X0.375000X-0.625000X0.375000X0.625000X-0.375000X0.625000X0*%
%TD*%
%TA.AperFunction,SMDPad,CuDef*%
%ADD35RoundRect,0.250000X-0.325000X-0.650000X0.325000X-0.650000X0.325000X0.650000X-0.325000X0.650000X0*%
%TD*%
%TA.AperFunction,SMDPad,CuDef*%
%ADD36RoundRect,0.075000X-0.700000X-0.075000X0.700000X-0.075000X0.700000X0.075000X-0.700000X0.075000X0*%
%TD*%
%TA.AperFunction,SMDPad,CuDef*%
%ADD37RoundRect,0.075000X-0.075000X-0.700000X0.075000X-0.700000X0.075000X0.700000X-0.075000X0.700000X0*%
%TD*%
%TA.AperFunction,ComponentPad*%
%ADD38RoundRect,0.200000X-0.200000X-0.450000X0.200000X-0.450000X0.200000X0.450000X-0.200000X0.450000X0*%
%TD*%
%TA.AperFunction,SMDPad,CuDef*%
%ADD39RoundRect,0.225000X0.250000X-0.225000X0.250000X0.225000X-0.250000X0.225000X-0.250000X-0.225000X0*%
%TD*%
%TA.AperFunction,SMDPad,CuDef*%
%ADD40RoundRect,0.225000X0.225000X0.250000X-0.225000X0.250000X-0.225000X-0.250000X0.225000X-0.250000X0*%
%TD*%
%TA.AperFunction,SMDPad,CuDef*%
%ADD41R,0.800000X1.000000*%
%TD*%
%TA.AperFunction,SMDPad,CuDef*%
%ADD42R,1.500000X0.700000*%
%TD*%
%TA.AperFunction,SMDPad,CuDef*%
%ADD43R,1.400000X0.400000*%
%TD*%
%TA.AperFunction,ComponentPad*%
%ADD44O,1.900000X1.050000*%
%TD*%
%TA.AperFunction,SMDPad,CuDef*%
%ADD45R,1.450000X1.150000*%
%TD*%
%TA.AperFunction,SMDPad,CuDef*%
%ADD46R,1.900000X1.750000*%
%TD*%
%TA.AperFunction,SMDPad,CuDef*%
%ADD47RoundRect,0.135000X-0.135000X-0.185000X0.135000X-0.185000X0.135000X0.185000X-0.135000X0.185000X0*%
%TD*%
%TA.AperFunction,SMDPad,CuDef*%
%ADD48RoundRect,0.150000X-0.150000X0.587500X-0.150000X-0.587500X0.150000X-0.587500X0.150000X0.587500X0*%
%TD*%
%TA.AperFunction,SMDPad,CuDef*%
%ADD49RoundRect,0.200000X0.200000X0.275000X-0.200000X0.275000X-0.200000X-0.275000X0.200000X-0.275000X0*%
%TD*%
%TA.AperFunction,ViaPad*%
%ADD50C,0.800000*%
%TD*%
%TA.AperFunction,Conductor*%
%ADD51C,0.260000*%
%TD*%
%TA.AperFunction,Conductor*%
%ADD52C,0.250000*%
%TD*%
%TA.AperFunction,Conductor*%
%ADD53C,0.750000*%
%TD*%
%TA.AperFunction,Conductor*%
%ADD54C,0.300000*%
%TD*%
%TA.AperFunction,Conductor*%
%ADD55C,0.500000*%
%TD*%
%TA.AperFunction,Conductor*%
%ADD56C,1.000000*%
%TD*%
G04 APERTURE END LIST*
D10*
%TO.P,J2,1,Pin_1*%
%TO.N,+3.3V*%
X148080000Y-81550000D03*
%TO.P,J2,2,Pin_2*%
%TO.N,SWDIO*%
X148080000Y-85450000D03*
%TO.P,J2,3,Pin_3*%
%TO.N,GND*%
X146810000Y-81550000D03*
%TO.P,J2,4,Pin_4*%
%TO.N,SWCLK*%
X146810000Y-85450000D03*
%TO.P,J2,5,Pin_5*%
%TO.N,GND*%
X145540000Y-81550000D03*
%TO.P,J2,6,Pin_6*%
%TO.N,SWO*%
X145540000Y-85450000D03*
%TO.P,J2,7,Pin_7*%
%TO.N,unconnected-(J2-Pin_7-Pad7)*%
X144270000Y-81550000D03*
%TO.P,J2,8,Pin_8*%
%TO.N,unconnected-(J2-Pin_8-Pad8)*%
X144270000Y-85450000D03*
%TO.P,J2,9,Pin_9*%
%TO.N,GND*%
X143000000Y-81550000D03*
%TO.P,J2,10,Pin_10*%
%TO.N,NRST*%
X143000000Y-85450000D03*
%TD*%
D11*
%TO.P,J3,1,Pin_1*%
%TO.N,+3.3V*%
X131500000Y-82450000D03*
D12*
%TO.P,J3,2,Pin_2*%
%TO.N,I2C1_SCL*%
X130250000Y-82450000D03*
%TO.P,J3,3,Pin_3*%
%TO.N,I2C1_SDA*%
X129000000Y-82450000D03*
%TO.P,J3,4,Pin_4*%
%TO.N,GND*%
X127750000Y-82450000D03*
%TD*%
D13*
%TO.P,L2,1*%
%TO.N,BUCK_SW*%
X145625000Y-116012500D03*
%TO.P,L2,2*%
%TO.N,+3.3V*%
X145625000Y-119862500D03*
%TD*%
D14*
%TO.P,C12,1*%
%TO.N,Net-(C12-Pad1)*%
X118350000Y-107600000D03*
%TO.P,C12,2*%
%TO.N,GND*%
X117390000Y-107600000D03*
%TD*%
D15*
%TO.P,C15,1*%
%TO.N,GND*%
X149050000Y-123437500D03*
%TO.P,C15,2*%
%TO.N,+3.3V*%
X146100000Y-123437500D03*
%TD*%
D14*
%TO.P,C5,1*%
%TO.N,+3.3V*%
X127730000Y-114250000D03*
%TO.P,C5,2*%
%TO.N,GND*%
X126770000Y-114250000D03*
%TD*%
D16*
%TO.P,H2,1,1*%
%TO.N,GND*%
X158025000Y-128525000D03*
X158969581Y-126244581D03*
X158969581Y-130805419D03*
X161250000Y-125300000D03*
D17*
X161250000Y-128525000D03*
D16*
X161250000Y-131750000D03*
X163530419Y-126244581D03*
X163530419Y-130805419D03*
X164475000Y-128525000D03*
%TD*%
D18*
%TO.P,R2,1*%
%TO.N,HSE_OUT*%
X122260000Y-105500000D03*
%TO.P,R2,2*%
%TO.N,Net-(C12-Pad1)*%
X121240000Y-105500000D03*
%TD*%
D19*
%TO.P,FB1,1*%
%TO.N,BUCK_IN*%
X153125000Y-110250000D03*
%TO.P,FB1,2*%
%TO.N,Net-(F1-Pad1)*%
X153125000Y-108125000D03*
%TD*%
D20*
%TO.P,L1,1*%
%TO.N,+3.3V*%
X118765000Y-110250000D03*
%TO.P,L1,2*%
%TO.N,+3.3VA*%
X119735000Y-110250000D03*
%TD*%
D21*
%TO.P,R4,1*%
%TO.N,BUCK_IN*%
X156500000Y-115175000D03*
%TO.P,R4,2*%
%TO.N,BUCK_EN*%
X156500000Y-116825000D03*
%TD*%
%TO.P,R7,1*%
%TO.N,BUCK_FB*%
X158750000Y-118675000D03*
%TO.P,R7,2*%
%TO.N,Net-(R7-Pad2)*%
X158750000Y-120325000D03*
%TD*%
D22*
%TO.P,U2,1,I/O1*%
%TO.N,USB_CONN_D-*%
X158937500Y-96087500D03*
%TO.P,U2,2,GND*%
%TO.N,GND*%
X158937500Y-95137500D03*
%TO.P,U2,3,I/O2*%
%TO.N,USB_CONN_D+*%
X158937500Y-94187500D03*
%TO.P,U2,4,I/O2*%
%TO.N,USB_D+*%
X156662500Y-94187500D03*
%TO.P,U2,5,VBUS*%
%TO.N,+5V*%
X156662500Y-95137500D03*
%TO.P,U2,6,I/O1*%
%TO.N,USB_D-*%
X156662500Y-96087500D03*
%TD*%
D23*
%TO.P,R8,1*%
%TO.N,Net-(R7-Pad2)*%
X160750000Y-120325000D03*
%TO.P,R8,2*%
%TO.N,GND*%
X160750000Y-118675000D03*
%TD*%
D15*
%TO.P,C17,1*%
%TO.N,GND*%
X149050000Y-126687500D03*
%TO.P,C17,2*%
%TO.N,+3.3V*%
X146100000Y-126687500D03*
%TD*%
D24*
%TO.P,C11,1*%
%TO.N,HSE_IN*%
X116870000Y-101600000D03*
%TO.P,C11,2*%
%TO.N,GND*%
X117830000Y-101600000D03*
%TD*%
D25*
%TO.P,D1,1,K*%
%TO.N,Net-(D1-K)*%
X123250000Y-114550000D03*
%TO.P,D1,2,A*%
%TO.N,LED_STATUS*%
X123250000Y-112975000D03*
%TD*%
D26*
%TO.P,J1,1,Pin_1*%
%TO.N,+12V*%
X163750000Y-115250000D03*
D27*
%TO.P,J1,2,Pin_2*%
%TO.N,GND*%
X163750000Y-111750000D03*
%TD*%
D18*
%TO.P,R9,1*%
%TO.N,+3.3V*%
X131270000Y-95225000D03*
%TO.P,R9,2*%
%TO.N,I2C1_SCL*%
X130250000Y-95225000D03*
%TD*%
D28*
%TO.P,C2,1*%
%TO.N,Net-(U1-VCAP_1)*%
X133725000Y-114725000D03*
%TO.P,C2,2*%
%TO.N,GND*%
X135275000Y-114725000D03*
%TD*%
D23*
%TO.P,R6,1*%
%TO.N,+3.3V*%
X156750000Y-120325000D03*
%TO.P,R6,2*%
%TO.N,BUCK_FB*%
X156750000Y-118675000D03*
%TD*%
D29*
%TO.P,Y1,1,1*%
%TO.N,HSE_IN*%
X117000000Y-103500000D03*
%TO.P,Y1,2,2*%
%TO.N,GND*%
X117000000Y-105700000D03*
%TO.P,Y1,3,3*%
%TO.N,Net-(C12-Pad1)*%
X118700000Y-105700000D03*
%TO.P,Y1,4,4*%
%TO.N,GND*%
X118700000Y-103500000D03*
%TD*%
D30*
%TO.P,D4,1,K*%
%TO.N,Net-(D4-K)*%
X154037500Y-81750000D03*
%TO.P,D4,2,A*%
%TO.N,+3.3V*%
X152462500Y-81750000D03*
%TD*%
D31*
%TO.P,MP2359DJ-LF-Z1,1,BST*%
%TO.N,BUCK_BST*%
X152550000Y-118712500D03*
%TO.P,MP2359DJ-LF-Z1,2,GND*%
%TO.N,GND*%
X153500000Y-118712500D03*
%TO.P,MP2359DJ-LF-Z1,3,FB*%
%TO.N,BUCK_FB*%
X154450000Y-118712500D03*
%TO.P,MP2359DJ-LF-Z1,4,EN*%
%TO.N,BUCK_EN*%
X154450000Y-116437500D03*
%TO.P,MP2359DJ-LF-Z1,5,IN*%
%TO.N,BUCK_IN*%
X153500000Y-116437500D03*
%TO.P,MP2359DJ-LF-Z1,6,SW*%
%TO.N,BUCK_SW*%
X152550000Y-116437500D03*
%TD*%
D32*
%TO.P,D3,1,K*%
%TO.N,Net-(D3-K)*%
X158000000Y-105250000D03*
%TO.P,D3,2,A*%
%TO.N,+5V*%
X161300000Y-105250000D03*
%TD*%
D33*
%TO.P,C4,1*%
%TO.N,+3.3V*%
X122250000Y-102705000D03*
%TO.P,C4,2*%
%TO.N,GND*%
X122250000Y-101745000D03*
%TD*%
D34*
%TO.P,F1,1*%
%TO.N,Net-(F1-Pad1)*%
X152950000Y-105187500D03*
%TO.P,F1,2*%
%TO.N,Net-(D3-K)*%
X155750000Y-105187500D03*
%TD*%
D33*
%TO.P,C10,1*%
%TO.N,+3.3VA*%
X122000000Y-108750000D03*
%TO.P,C10,2*%
%TO.N,GND*%
X122000000Y-107790000D03*
%TD*%
%TO.P,C7,1*%
%TO.N,+3.3V*%
X136750000Y-101185000D03*
%TO.P,C7,2*%
%TO.N,GND*%
X136750000Y-100225000D03*
%TD*%
D21*
%TO.P,R3,1*%
%TO.N,GND*%
X121000000Y-112900000D03*
%TO.P,R3,2*%
%TO.N,Net-(D1-K)*%
X121000000Y-114550000D03*
%TD*%
D35*
%TO.P,C13,1*%
%TO.N,BUCK_IN*%
X153275000Y-112937500D03*
%TO.P,C13,2*%
%TO.N,GND*%
X156225000Y-112937500D03*
%TD*%
D16*
%TO.P,H4,1,1*%
%TO.N,GND*%
X112805419Y-128719581D03*
X113750000Y-126439162D03*
X113750000Y-131000000D03*
X116030419Y-125494581D03*
D17*
X116030419Y-128719581D03*
D16*
X116030419Y-131944581D03*
X118310838Y-126439162D03*
X118310838Y-131000000D03*
X119255419Y-128719581D03*
%TD*%
%TO.P,H1,1,1*%
%TO.N,GND*%
X157994581Y-83469581D03*
X158939162Y-81189162D03*
X158939162Y-85750000D03*
X161219581Y-80244581D03*
D17*
X161219581Y-83469581D03*
D16*
X161219581Y-86694581D03*
X163500000Y-81189162D03*
X163500000Y-85750000D03*
X164444581Y-83469581D03*
%TD*%
D24*
%TO.P,C6,1*%
%TO.N,+3.3V*%
X135520000Y-112975000D03*
%TO.P,C6,2*%
%TO.N,GND*%
X136480000Y-112975000D03*
%TD*%
D33*
%TO.P,C9,1*%
%TO.N,+3.3VA*%
X120500000Y-108750000D03*
%TO.P,C9,2*%
%TO.N,GND*%
X120500000Y-107790000D03*
%TD*%
D36*
%TO.P,U1,1,VBAT*%
%TO.N,+3.3V*%
X124575000Y-102725000D03*
%TO.P,U1,2,PC13*%
%TO.N,unconnected-(U1-PC13-Pad2)*%
X124575000Y-103225000D03*
%TO.P,U1,3,PC14*%
%TO.N,unconnected-(U1-PC14-Pad3)*%
X124575000Y-103725000D03*
%TO.P,U1,4,PC15*%
%TO.N,unconnected-(U1-PC15-Pad4)*%
X124575000Y-104225000D03*
%TO.P,U1,5,PH0*%
%TO.N,HSE_IN*%
X124575000Y-104725000D03*
%TO.P,U1,6,PH1*%
%TO.N,HSE_OUT*%
X124575000Y-105225000D03*
%TO.P,U1,7,NRST*%
%TO.N,NRST*%
X124575000Y-105725000D03*
%TO.P,U1,8,PC0*%
%TO.N,unconnected-(U1-PC0-Pad8)*%
X124575000Y-106225000D03*
%TO.P,U1,9,PC1*%
%TO.N,unconnected-(U1-PC1-Pad9)*%
X124575000Y-106725000D03*
%TO.P,U1,10,PC2*%
%TO.N,unconnected-(U1-PC2-Pad10)*%
X124575000Y-107225000D03*
%TO.P,U1,11,PC3*%
%TO.N,unconnected-(U1-PC3-Pad11)*%
X124575000Y-107725000D03*
%TO.P,U1,12,VSSA*%
%TO.N,GND*%
X124575000Y-108225000D03*
%TO.P,U1,13,VDDA*%
%TO.N,+3.3VA*%
X124575000Y-108725000D03*
%TO.P,U1,14,PA0*%
%TO.N,unconnected-(U1-PA0-Pad14)*%
X124575000Y-109225000D03*
%TO.P,U1,15,PA1*%
%TO.N,unconnected-(U1-PA1-Pad15)*%
X124575000Y-109725000D03*
%TO.P,U1,16,PA2*%
%TO.N,LED_STATUS*%
X124575000Y-110225000D03*
D37*
%TO.P,U1,17,PA3*%
%TO.N,unconnected-(U1-PA3-Pad17)*%
X126500000Y-112150000D03*
%TO.P,U1,18,VSS*%
%TO.N,GND*%
X127000000Y-112150000D03*
%TO.P,U1,19,VDD*%
%TO.N,+3.3V*%
X127500000Y-112150000D03*
%TO.P,U1,20,PA4*%
%TO.N,unconnected-(U1-PA4-Pad20)*%
X128000000Y-112150000D03*
%TO.P,U1,21,PA5*%
%TO.N,unconnected-(U1-PA5-Pad21)*%
X128500000Y-112150000D03*
%TO.P,U1,22,PA6*%
%TO.N,unconnected-(U1-PA6-Pad22)*%
X129000000Y-112150000D03*
%TO.P,U1,23,PA7*%
%TO.N,unconnected-(U1-PA7-Pad23)*%
X129500000Y-112150000D03*
%TO.P,U1,24,PC4*%
%TO.N,unconnected-(U1-PC4-Pad24)*%
X130000000Y-112150000D03*
%TO.P,U1,25,PC5*%
%TO.N,unconnected-(U1-PC5-Pad25)*%
X130500000Y-112150000D03*
%TO.P,U1,26,PB0*%
%TO.N,unconnected-(U1-PB0-Pad26)*%
X131000000Y-112150000D03*
%TO.P,U1,27,PB1*%
%TO.N,unconnected-(U1-PB1-Pad27)*%
X131500000Y-112150000D03*
%TO.P,U1,28,PB2*%
%TO.N,unconnected-(U1-PB2-Pad28)*%
X132000000Y-112150000D03*
%TO.P,U1,29,PB10*%
%TO.N,USART3_TX*%
X132500000Y-112150000D03*
%TO.P,U1,30,PB11*%
%TO.N,USART3_RX*%
X133000000Y-112150000D03*
%TO.P,U1,31,VCAP_1*%
%TO.N,Net-(U1-VCAP_1)*%
X133500000Y-112150000D03*
%TO.P,U1,32,VDD*%
%TO.N,+3.3V*%
X134000000Y-112150000D03*
D36*
%TO.P,U1,33,PB12*%
%TO.N,unconnected-(U1-PB12-Pad33)*%
X135925000Y-110225000D03*
%TO.P,U1,34,PB13*%
%TO.N,unconnected-(U1-PB13-Pad34)*%
X135925000Y-109725000D03*
%TO.P,U1,35,PB14*%
%TO.N,unconnected-(U1-PB14-Pad35)*%
X135925000Y-109225000D03*
%TO.P,U1,36,PB15*%
%TO.N,unconnected-(U1-PB15-Pad36)*%
X135925000Y-108725000D03*
%TO.P,U1,37,PC6*%
%TO.N,unconnected-(U1-PC6-Pad37)*%
X135925000Y-108225000D03*
%TO.P,U1,38,PC7*%
%TO.N,unconnected-(U1-PC7-Pad38)*%
X135925000Y-107725000D03*
%TO.P,U1,39,PC8*%
%TO.N,unconnected-(U1-PC8-Pad39)*%
X135925000Y-107225000D03*
%TO.P,U1,40,PC9*%
%TO.N,unconnected-(U1-PC9-Pad40)*%
X135925000Y-106725000D03*
%TO.P,U1,41,PA8*%
%TO.N,unconnected-(U1-PA8-Pad41)*%
X135925000Y-106225000D03*
%TO.P,U1,42,PA9*%
%TO.N,unconnected-(U1-PA9-Pad42)*%
X135925000Y-105725000D03*
%TO.P,U1,43,PA10*%
%TO.N,unconnected-(U1-PA10-Pad43)*%
X135925000Y-105225000D03*
%TO.P,U1,44,PA11*%
%TO.N,USB_D-*%
X135925000Y-104725000D03*
%TO.P,U1,45,PA12*%
%TO.N,USB_D+*%
X135925000Y-104225000D03*
%TO.P,U1,46,PA13*%
%TO.N,SWDIO*%
X135925000Y-103725000D03*
%TO.P,U1,47,VCAP_2*%
%TO.N,Net-(U1-VCAP_2)*%
X135925000Y-103225000D03*
%TO.P,U1,48,VDD*%
%TO.N,+3.3V*%
X135925000Y-102725000D03*
D37*
%TO.P,U1,49,PA14*%
%TO.N,SWCLK*%
X134000000Y-100800000D03*
%TO.P,U1,50,PA15*%
%TO.N,unconnected-(U1-PA15-Pad50)*%
X133500000Y-100800000D03*
%TO.P,U1,51,PC10*%
%TO.N,unconnected-(U1-PC10-Pad51)*%
X133000000Y-100800000D03*
%TO.P,U1,52,PC11*%
%TO.N,unconnected-(U1-PC11-Pad52)*%
X132500000Y-100800000D03*
%TO.P,U1,53,PC12*%
%TO.N,unconnected-(U1-PC12-Pad53)*%
X132000000Y-100800000D03*
%TO.P,U1,54,PD2*%
%TO.N,unconnected-(U1-PD2-Pad54)*%
X131500000Y-100800000D03*
%TO.P,U1,55,PB3*%
%TO.N,SWO*%
X131000000Y-100800000D03*
%TO.P,U1,56,PB4*%
%TO.N,unconnected-(U1-PB4-Pad56)*%
X130500000Y-100800000D03*
%TO.P,U1,57,PB5*%
%TO.N,unconnected-(U1-PB5-Pad57)*%
X130000000Y-100800000D03*
%TO.P,U1,58,PB6*%
%TO.N,I2C1_SCL*%
X129500000Y-100800000D03*
%TO.P,U1,59,PB7*%
%TO.N,I2C1_SDA*%
X129000000Y-100800000D03*
%TO.P,U1,60,BOOT0*%
%TO.N,BOOT0*%
X128500000Y-100800000D03*
%TO.P,U1,61,PB8*%
%TO.N,unconnected-(U1-PB8-Pad61)*%
X128000000Y-100800000D03*
%TO.P,U1,62,PB9*%
%TO.N,unconnected-(U1-PB9-Pad62)*%
X127500000Y-100800000D03*
%TO.P,U1,63,VSS*%
%TO.N,GND*%
X127000000Y-100800000D03*
%TO.P,U1,64,VDD*%
%TO.N,+3.3V*%
X126500000Y-100800000D03*
%TD*%
D38*
%TO.P,J4,1,Pin_1*%
%TO.N,+3.3V*%
X128000000Y-129500000D03*
D12*
%TO.P,J4,2,Pin_2*%
%TO.N,USART3_TX*%
X129250000Y-129500000D03*
%TO.P,J4,3,Pin_3*%
%TO.N,USART3_RX*%
X130500000Y-129500000D03*
%TO.P,J4,4,Pin_4*%
%TO.N,GND*%
X131750000Y-129500000D03*
%TD*%
D39*
%TO.P,C14,1*%
%TO.N,BUCK_BST*%
X150300000Y-118462500D03*
%TO.P,C14,2*%
%TO.N,BUCK_SW*%
X150300000Y-116912500D03*
%TD*%
D32*
%TO.P,D2,1,K*%
%TO.N,BUCK_SW*%
X145750000Y-112437500D03*
%TO.P,D2,2,A*%
%TO.N,GND*%
X149050000Y-112437500D03*
%TD*%
D39*
%TO.P,C1,1*%
%TO.N,Net-(U1-VCAP_2)*%
X139000000Y-102775000D03*
%TO.P,C1,2*%
%TO.N,GND*%
X139000000Y-101225000D03*
%TD*%
D24*
%TO.P,C8,1*%
%TO.N,+3.3V*%
X126520000Y-98750000D03*
%TO.P,C8,2*%
%TO.N,GND*%
X127480000Y-98750000D03*
%TD*%
D40*
%TO.P,C3,1*%
%TO.N,+3.3V*%
X123525000Y-98725000D03*
%TO.P,C3,2*%
%TO.N,GND*%
X121975000Y-98725000D03*
%TD*%
D41*
%TO.P,SW1,*%
%TO.N,*%
X112505000Y-92350000D03*
X110295000Y-92350000D03*
X112505000Y-99650000D03*
X110295000Y-99650000D03*
D42*
%TO.P,SW1,1,A*%
%TO.N,+3.3V*%
X113155000Y-93750000D03*
%TO.P,SW1,2,B*%
%TO.N,Net-(SW1-B)*%
X113155000Y-96750000D03*
%TO.P,SW1,3,C*%
%TO.N,GND*%
X113155000Y-98250000D03*
%TD*%
D43*
%TO.P,J5,1,VBUS*%
%TO.N,+5V*%
X162830000Y-95750000D03*
%TO.P,J5,2,D-*%
%TO.N,USB_CONN_D-*%
X162830000Y-95100000D03*
%TO.P,J5,3,D+*%
%TO.N,USB_CONN_D+*%
X162830000Y-94450000D03*
%TO.P,J5,4,ID*%
%TO.N,unconnected-(J5-ID-Pad4)*%
X162830000Y-93800000D03*
%TO.P,J5,5,GND*%
%TO.N,GND*%
X162830000Y-93150000D03*
D44*
%TO.P,J5,6,Shield*%
%TO.N,unconnected-(J5-Shield-Pad6)*%
X165480000Y-98025000D03*
D45*
X163250000Y-96770000D03*
D46*
X165480000Y-95575000D03*
X165480000Y-93325000D03*
D45*
X163250000Y-92130000D03*
D44*
X165480000Y-90875000D03*
%TD*%
D16*
%TO.P,H3,1,1*%
%TO.N,GND*%
X112775000Y-83275000D03*
X113719581Y-80994581D03*
X113719581Y-85555419D03*
X116000000Y-80050000D03*
D17*
X116000000Y-83275000D03*
D16*
X116000000Y-86500000D03*
X118280419Y-80994581D03*
X118280419Y-85555419D03*
X119225000Y-83275000D03*
%TD*%
D47*
%TO.P,R10,1*%
%TO.N,+3.3V*%
X127740000Y-95225000D03*
%TO.P,R10,2*%
%TO.N,I2C1_SDA*%
X128760000Y-95225000D03*
%TD*%
D48*
%TO.P,Q1,1,G*%
%TO.N,GND*%
X157762500Y-108250000D03*
%TO.P,Q1,2,S*%
%TO.N,Net-(D3-K)*%
X155862500Y-108250000D03*
%TO.P,Q1,3,D*%
%TO.N,+12V*%
X156812500Y-110125000D03*
%TD*%
D18*
%TO.P,R1,1*%
%TO.N,BOOT0*%
X116760000Y-96975000D03*
%TO.P,R1,2*%
%TO.N,Net-(SW1-B)*%
X115740000Y-96975000D03*
%TD*%
D23*
%TO.P,R5,1*%
%TO.N,BUCK_EN*%
X158500000Y-116825000D03*
%TO.P,R5,2*%
%TO.N,GND*%
X158500000Y-115175000D03*
%TD*%
D49*
%TO.P,R11,1*%
%TO.N,Net-(D4-K)*%
X154075000Y-84500000D03*
%TO.P,R11,2*%
%TO.N,GND*%
X152425000Y-84500000D03*
%TD*%
D50*
%TO.N,GND*%
X143000000Y-79900000D03*
X145550000Y-79925000D03*
X146825000Y-79925000D03*
%TO.N,+3.3V*%
X148050000Y-79875000D03*
%TO.N,NRST*%
X132960287Y-96960287D03*
X133000000Y-102500000D03*
%TO.N,GND*%
X115975000Y-105725000D03*
X117400000Y-108350000D03*
X161700000Y-93175000D03*
X153500000Y-119825000D03*
X157725000Y-93125000D03*
%TO.N,+3.3V*%
X136000000Y-101175000D03*
%TO.N,GND*%
X150075000Y-127400000D03*
X150075000Y-124175000D03*
X159425000Y-115150000D03*
X149125000Y-113525000D03*
X157825000Y-109475000D03*
X157775000Y-107050000D03*
X149075000Y-111400000D03*
X158500000Y-114325000D03*
X157300000Y-112975000D03*
X161700000Y-118675000D03*
X150050000Y-125875000D03*
X150050000Y-122600000D03*
X151575000Y-84475000D03*
X136750000Y-99500000D03*
X138975000Y-100350000D03*
X137200000Y-113000000D03*
X136150000Y-114700000D03*
X126050000Y-114250000D03*
X120050000Y-112875000D03*
X122025000Y-107075000D03*
X120500000Y-107075000D03*
X119750000Y-103500000D03*
X117825000Y-100850000D03*
X121075000Y-98700000D03*
X121500000Y-101750000D03*
X114350000Y-98275000D03*
X127525000Y-98000000D03*
%TO.N,+3.3V*%
X156700000Y-121200000D03*
X155825000Y-120375000D03*
X147125000Y-126750000D03*
X145100000Y-126775000D03*
X147150000Y-123425000D03*
X145100000Y-123500000D03*
X148850000Y-120600000D03*
X148800000Y-119075000D03*
X142450000Y-119000000D03*
X142450000Y-120550000D03*
X126500000Y-98000000D03*
X122275000Y-103400000D03*
X118825000Y-111000000D03*
X118775000Y-109475000D03*
X128450000Y-114250000D03*
X135000000Y-113575000D03*
X151550000Y-81775000D03*
X114400000Y-93750000D03*
X123525000Y-97775000D03*
X127000000Y-95275000D03*
X132000000Y-95250000D03*
%TD*%
D51*
%TO.N,+3.3V*%
X148050000Y-81520000D02*
X148080000Y-81550000D01*
X148050000Y-79875000D02*
X148050000Y-81520000D01*
%TO.N,GND*%
X146825000Y-81535000D02*
X146810000Y-81550000D01*
X146825000Y-79925000D02*
X146825000Y-81535000D01*
X145550000Y-81540000D02*
X145540000Y-81550000D01*
X145550000Y-79925000D02*
X145550000Y-81540000D01*
X143000000Y-79900000D02*
X143000000Y-81550000D01*
D52*
%TO.N,SWDIO*%
X135500000Y-99250000D02*
X148080000Y-86670000D01*
X134750000Y-99250000D02*
X135500000Y-99250000D01*
X148080000Y-86670000D02*
X148080000Y-85450000D01*
D51*
%TO.N,SWCLK*%
X134000000Y-99356533D02*
X146810000Y-86546533D01*
X134000000Y-100800000D02*
X134000000Y-99356533D01*
X146810000Y-86546533D02*
X146810000Y-85450000D01*
D52*
X146810000Y-86400000D02*
X146810000Y-85450000D01*
D51*
%TO.N,SWO*%
X132450000Y-99500000D02*
X145540000Y-86410000D01*
X131000000Y-100800000D02*
X131000000Y-99500000D01*
X131000000Y-99500000D02*
X132450000Y-99500000D01*
X145540000Y-86410000D02*
X145540000Y-85450000D01*
%TO.N,NRST*%
X143000000Y-86920574D02*
X143000000Y-85450000D01*
X132960287Y-96960287D02*
X143000000Y-86920574D01*
X129775000Y-105725000D02*
X133000000Y-102500000D01*
X124575000Y-105725000D02*
X129775000Y-105725000D01*
%TO.N,SWO*%
X145540000Y-86460000D02*
X145540000Y-85450000D01*
D53*
%TO.N,GND*%
X116975000Y-105725000D02*
X117000000Y-105700000D01*
X115975000Y-105725000D02*
X116975000Y-105725000D01*
D52*
X117390000Y-108340000D02*
X117400000Y-108350000D01*
X117390000Y-107600000D02*
X117390000Y-108340000D01*
D54*
%TO.N,Net-(D4-K)*%
X154075000Y-81787500D02*
X154037500Y-81750000D01*
X154075000Y-84500000D02*
X154075000Y-81787500D01*
%TO.N,GND*%
X162805000Y-93175000D02*
X162830000Y-93150000D01*
X161700000Y-93175000D02*
X162805000Y-93175000D01*
D52*
%TO.N,HSE_IN*%
X123425000Y-104675000D02*
X123475000Y-104725000D01*
X118075000Y-104675000D02*
X123425000Y-104675000D01*
X117000000Y-103600000D02*
X118075000Y-104675000D01*
X117000000Y-103500000D02*
X117000000Y-103600000D01*
X123475000Y-104725000D02*
X124575000Y-104725000D01*
D54*
%TO.N,Net-(SW1-B)*%
X115515000Y-96750000D02*
X115740000Y-96975000D01*
X113155000Y-96750000D02*
X115515000Y-96750000D01*
D55*
%TO.N,GND*%
X153500000Y-119825000D02*
X153500000Y-118712500D01*
X136505000Y-113000000D02*
X136480000Y-112975000D01*
X137200000Y-113000000D02*
X136505000Y-113000000D01*
X135300000Y-114700000D02*
X135275000Y-114725000D01*
X136150000Y-114700000D02*
X135300000Y-114700000D01*
D54*
%TO.N,unconnected-(J5-Shield-Pad6)*%
X164505000Y-90875000D02*
X163250000Y-92130000D01*
X165480000Y-90875000D02*
X164505000Y-90875000D01*
X165480000Y-98025000D02*
X165480000Y-90875000D01*
X164225000Y-96770000D02*
X165480000Y-98025000D01*
X163250000Y-96770000D02*
X164225000Y-96770000D01*
%TO.N,GND*%
X157725000Y-94344607D02*
X157725000Y-93125000D01*
X158517893Y-95137500D02*
X157725000Y-94344607D01*
X158937500Y-95137500D02*
X158517893Y-95137500D01*
D52*
%TO.N,+5V*%
X157650000Y-96434251D02*
X157650000Y-95740749D01*
X158690749Y-97475000D02*
X157650000Y-96434251D01*
X157046751Y-95137500D02*
X156662500Y-95137500D01*
X161300000Y-97475000D02*
X158690749Y-97475000D01*
X161300000Y-97475000D02*
X161300000Y-105250000D01*
X157650000Y-95740749D02*
X157046751Y-95137500D01*
X161300000Y-96780000D02*
X161300000Y-97475000D01*
D54*
%TO.N,USB_CONN_D-*%
X161882107Y-95100000D02*
X162830000Y-95100000D01*
X161732107Y-95250000D02*
X161882107Y-95100000D01*
X160012500Y-96087500D02*
X160850000Y-95250000D01*
X158937500Y-96087500D02*
X160012500Y-96087500D01*
X160850000Y-95250000D02*
X161732107Y-95250000D01*
%TO.N,USB_CONN_D+*%
X161825000Y-94450000D02*
X162830000Y-94450000D01*
X161525000Y-94750000D02*
X161825000Y-94450000D01*
X159912500Y-94187500D02*
X160475000Y-94750000D01*
X160475000Y-94750000D02*
X161525000Y-94750000D01*
X158937500Y-94187500D02*
X159912500Y-94187500D01*
D55*
%TO.N,+3.3V*%
X148050000Y-81670000D02*
X148080000Y-81700000D01*
%TO.N,GND*%
X145575000Y-81665000D02*
X145540000Y-81700000D01*
%TO.N,unconnected-(J2-Pin_7-Pad7)*%
X144275000Y-81695000D02*
X144270000Y-81700000D01*
%TO.N,+3.3V*%
X136740000Y-101175000D02*
X136750000Y-101185000D01*
X136000000Y-101175000D02*
X136740000Y-101175000D01*
%TO.N,GND*%
X157825000Y-108312500D02*
X157762500Y-108250000D01*
X157825000Y-109475000D02*
X157825000Y-108312500D01*
X157775000Y-108237500D02*
X157762500Y-108250000D01*
X157775000Y-107050000D02*
X157775000Y-108237500D01*
X152400000Y-84475000D02*
X152425000Y-84500000D01*
X151575000Y-84475000D02*
X152400000Y-84475000D01*
X138975000Y-100350000D02*
X138975000Y-101200000D01*
X138975000Y-101200000D02*
X139000000Y-101225000D01*
X136750000Y-99500000D02*
X136750000Y-100225000D01*
X127525000Y-98705000D02*
X127480000Y-98750000D01*
X127525000Y-98000000D02*
X127525000Y-98705000D01*
X126050000Y-114250000D02*
X126770000Y-114250000D01*
X120975000Y-112875000D02*
X121000000Y-112900000D01*
X120050000Y-112875000D02*
X120975000Y-112875000D01*
X120500000Y-107075000D02*
X120500000Y-107790000D01*
X122025000Y-107765000D02*
X122000000Y-107790000D01*
X122025000Y-107075000D02*
X122025000Y-107765000D01*
X119750000Y-103500000D02*
X118700000Y-103500000D01*
X121950000Y-98700000D02*
X121975000Y-98725000D01*
X121075000Y-98700000D02*
X121950000Y-98700000D01*
X122245000Y-101750000D02*
X122250000Y-101745000D01*
X121500000Y-101750000D02*
X122245000Y-101750000D01*
X117825000Y-100850000D02*
X117825000Y-101595000D01*
X117825000Y-101595000D02*
X117830000Y-101600000D01*
D53*
X114325000Y-98250000D02*
X114350000Y-98275000D01*
X113155000Y-98250000D02*
X114325000Y-98250000D01*
D56*
X161700000Y-118675000D02*
X160750000Y-118675000D01*
X158525000Y-115150000D02*
X158500000Y-115175000D01*
X159425000Y-115150000D02*
X158525000Y-115150000D01*
X158500000Y-114325000D02*
X158500000Y-115175000D01*
X157300000Y-112975000D02*
X156262500Y-112975000D01*
X156262500Y-112975000D02*
X156225000Y-112937500D01*
D53*
X149125000Y-113525000D02*
X149125000Y-112512500D01*
X149125000Y-112512500D02*
X149050000Y-112437500D01*
X149075000Y-112412500D02*
X149050000Y-112437500D01*
X149075000Y-111400000D02*
X149075000Y-112412500D01*
X150075000Y-122625000D02*
X150050000Y-122600000D01*
X150075000Y-124175000D02*
X150075000Y-122625000D01*
X149787500Y-124175000D02*
X149050000Y-123437500D01*
X150075000Y-124175000D02*
X149787500Y-124175000D01*
X149887500Y-122600000D02*
X149050000Y-123437500D01*
X150050000Y-122600000D02*
X149887500Y-122600000D01*
X150075000Y-125900000D02*
X150050000Y-125875000D01*
X150075000Y-127400000D02*
X150075000Y-125900000D01*
X149362500Y-126687500D02*
X150075000Y-127400000D01*
X149050000Y-126687500D02*
X149362500Y-126687500D01*
X149050000Y-126687500D02*
X149237500Y-126687500D01*
X149237500Y-126687500D02*
X150050000Y-125875000D01*
D52*
X127525000Y-98725000D02*
X127480000Y-99479315D01*
%TO.N,+3.3V*%
X146100000Y-123437500D02*
X146100000Y-126687500D01*
D53*
X156700000Y-121200000D02*
X156700000Y-120375000D01*
X156700000Y-120375000D02*
X156750000Y-120325000D01*
X155825000Y-120375000D02*
X156700000Y-120375000D01*
X147100000Y-126775000D02*
X147125000Y-126750000D01*
X145100000Y-126775000D02*
X147100000Y-126775000D01*
X147075000Y-123500000D02*
X147150000Y-123425000D01*
X145100000Y-123500000D02*
X147075000Y-123500000D01*
X145625000Y-122962500D02*
X146100000Y-123437500D01*
X145625000Y-119862500D02*
X145625000Y-122962500D01*
X148800000Y-120550000D02*
X148850000Y-120600000D01*
X148800000Y-119075000D02*
X148800000Y-120550000D01*
X142450000Y-119000000D02*
X142450000Y-120550000D01*
X146362500Y-120600000D02*
X145625000Y-119862500D01*
X148850000Y-120600000D02*
X146362500Y-120600000D01*
X148800000Y-119075000D02*
X146412500Y-119075000D01*
X146412500Y-119075000D02*
X145625000Y-119862500D01*
X142450000Y-120550000D02*
X144937500Y-120550000D01*
X144937500Y-120550000D02*
X145625000Y-119862500D01*
X144762500Y-119000000D02*
X145625000Y-119862500D01*
X142450000Y-119000000D02*
X144762500Y-119000000D01*
D55*
X145587500Y-120075000D02*
X145800000Y-119862500D01*
X135000000Y-113495000D02*
X135520000Y-112975000D01*
X135000000Y-113575000D02*
X135000000Y-113495000D01*
X128450000Y-114250000D02*
X127730000Y-114250000D01*
X118825000Y-110310000D02*
X118765000Y-110250000D01*
X118825000Y-111000000D02*
X118825000Y-110310000D01*
X118775000Y-110240000D02*
X118765000Y-110250000D01*
X118775000Y-109475000D02*
X118775000Y-110240000D01*
X122275000Y-102730000D02*
X122250000Y-102705000D01*
X122275000Y-103400000D02*
X122275000Y-102730000D01*
%TO.N,GND*%
X142975000Y-81675000D02*
X143000000Y-81700000D01*
%TO.N,+3.3V*%
X151550000Y-81775000D02*
X152437500Y-81775000D01*
X152437500Y-81775000D02*
X152462500Y-81750000D01*
X131975000Y-95225000D02*
X132000000Y-95250000D01*
X131270000Y-95225000D02*
X131975000Y-95225000D01*
X127690000Y-95275000D02*
X127740000Y-95225000D01*
X127000000Y-95275000D02*
X127690000Y-95275000D01*
X126500000Y-98730000D02*
X126520000Y-98750000D01*
X126500000Y-98000000D02*
X126500000Y-98730000D01*
X123525000Y-97775000D02*
X123525000Y-98725000D01*
X114400000Y-93750000D02*
X113155000Y-93750000D01*
D54*
%TO.N,BOOT0*%
X116760000Y-97760000D02*
X116760000Y-96975000D01*
X119750000Y-100750000D02*
X116760000Y-97760000D01*
X126000000Y-102250000D02*
X124500000Y-100750000D01*
X124500000Y-100750000D02*
X119750000Y-100750000D01*
X128000000Y-102250000D02*
X126000000Y-102250000D01*
X128500000Y-100800000D02*
X128500000Y-101750000D01*
X128500000Y-101750000D02*
X128000000Y-102250000D01*
D51*
%TO.N,USB_D-*%
X141275000Y-104725000D02*
X135925000Y-104725000D01*
X150500000Y-95500000D02*
X141275000Y-104725000D01*
X155587500Y-96087500D02*
X155000000Y-95500000D01*
X155000000Y-95500000D02*
X150500000Y-95500000D01*
X156662500Y-96087500D02*
X155587500Y-96087500D01*
%TO.N,USB_D+*%
X150250000Y-95000000D02*
X155000000Y-95000000D01*
X141025000Y-104225000D02*
X135925000Y-104225000D01*
X150250000Y-95000000D02*
X141025000Y-104225000D01*
X155812500Y-94187500D02*
X155000000Y-95000000D01*
X156662500Y-94187500D02*
X155812500Y-94187500D01*
D52*
%TO.N,Net-(U1-VCAP_2)*%
X138550000Y-103225000D02*
X135925000Y-103225000D01*
X139000000Y-102775000D02*
X138550000Y-103225000D01*
%TO.N,GND*%
X127000000Y-114020000D02*
X126770000Y-114250000D01*
X117830000Y-101600000D02*
X118700000Y-102470000D01*
X122435000Y-108225000D02*
X122000000Y-107790000D01*
X117000000Y-107210000D02*
X117390000Y-107600000D01*
X118700000Y-102470000D02*
X118700000Y-103500000D01*
X127000000Y-112150000D02*
X127000000Y-114020000D01*
X127480000Y-98750000D02*
X127525000Y-98725000D01*
X127000000Y-99959315D02*
X127000000Y-100800000D01*
X127480000Y-99479315D02*
X127000000Y-99959315D01*
X117000000Y-105700000D02*
X117000000Y-107210000D01*
X124575000Y-108225000D02*
X122435000Y-108225000D01*
%TO.N,Net-(U1-VCAP_1)*%
X133725000Y-114725000D02*
X133500000Y-114500000D01*
X133500000Y-114500000D02*
X133500000Y-112150000D01*
%TO.N,+3.3V*%
X124575000Y-102725000D02*
X122270000Y-102725000D01*
X126520000Y-100780000D02*
X126500000Y-100800000D01*
X136750000Y-101185000D02*
X136750000Y-101900000D01*
X134825000Y-112975000D02*
X134000000Y-112150000D01*
X135520000Y-112975000D02*
X134825000Y-112975000D01*
X122270000Y-102725000D02*
X122250000Y-102705000D01*
X126520000Y-98750000D02*
X126520000Y-100780000D01*
X145800000Y-123137500D02*
X145800000Y-119862500D01*
X136750000Y-101900000D02*
X135925000Y-102725000D01*
X127500000Y-112150000D02*
X127500000Y-114020000D01*
X146100000Y-123437500D02*
X145800000Y-123137500D01*
X123550000Y-98750000D02*
X126520000Y-98750000D01*
X127500000Y-114020000D02*
X127730000Y-114250000D01*
X123525000Y-98725000D02*
X123550000Y-98750000D01*
%TO.N,HSE_IN*%
X116870000Y-101600000D02*
X116870000Y-103370000D01*
X117000000Y-103900000D02*
X117000000Y-103800000D01*
X116870000Y-103370000D02*
X117000000Y-103500000D01*
%TO.N,Net-(C12-Pad1)*%
X121040000Y-105700000D02*
X118700000Y-105700000D01*
X118350000Y-106050000D02*
X118700000Y-105700000D01*
X118350000Y-107600000D02*
X118350000Y-106050000D01*
X121240000Y-105500000D02*
X121040000Y-105700000D01*
%TO.N,BUCK_IN*%
X156500000Y-115175000D02*
X153950000Y-115175000D01*
X153950000Y-115175000D02*
X153275000Y-114500000D01*
X153275000Y-114500000D02*
X153275000Y-116212500D01*
X153125000Y-112787500D02*
X153275000Y-112937500D01*
X153275000Y-116212500D02*
X153500000Y-116437500D01*
X153125000Y-110250000D02*
X153125000Y-112787500D01*
X153275000Y-112937500D02*
X153275000Y-114500000D01*
%TO.N,BUCK_BST*%
X150550000Y-118712500D02*
X150300000Y-118462500D01*
X152550000Y-118712500D02*
X150550000Y-118712500D01*
%TO.N,BUCK_SW*%
X152550000Y-116437500D02*
X150775000Y-116437500D01*
X149400000Y-116012500D02*
X145800000Y-116012500D01*
X145750000Y-112437500D02*
X145800000Y-112487500D01*
X150300000Y-116912500D02*
X149400000Y-116012500D01*
X150775000Y-116437500D02*
X150300000Y-116912500D01*
X145800000Y-112487500D02*
X145800000Y-116012500D01*
%TO.N,Net-(D1-K)*%
X121000000Y-114550000D02*
X123250000Y-114550000D01*
%TO.N,LED_STATUS*%
X124575000Y-111650000D02*
X124575000Y-110225000D01*
X123250000Y-112975000D02*
X124575000Y-111650000D01*
%TO.N,Net-(D3-K)*%
X155750000Y-105187500D02*
X155750000Y-108137500D01*
X155750000Y-105187500D02*
X157937500Y-105187500D01*
X155750000Y-108137500D02*
X155862500Y-108250000D01*
X157937500Y-105187500D02*
X158000000Y-105250000D01*
%TO.N,+5V*%
X162830000Y-95750000D02*
X162330000Y-95750000D01*
X162330000Y-95750000D02*
X161300000Y-96780000D01*
%TO.N,+12V*%
X163750000Y-115250000D02*
X161937500Y-115250000D01*
X161937500Y-115250000D02*
X156812500Y-110125000D01*
%TO.N,SWDIO*%
X134500000Y-103750000D02*
X135900000Y-103750000D01*
X134500000Y-102500000D02*
X134500000Y-103750000D01*
X134750000Y-102250000D02*
X134500000Y-102500000D01*
X135925000Y-103725000D02*
X135084315Y-103725000D01*
X135900000Y-103750000D02*
X135925000Y-103725000D01*
X134750000Y-99250000D02*
X134750000Y-102250000D01*
%TO.N,SWO*%
X145540000Y-83790000D02*
X145540000Y-85300000D01*
%TO.N,I2C1_SCL*%
X129500000Y-99959315D02*
X129500000Y-100800000D01*
X130250000Y-99209315D02*
X129500000Y-99959315D01*
X130250000Y-82450000D02*
X130250000Y-95225000D01*
X130250000Y-95225000D02*
X130250000Y-99209315D01*
%TO.N,I2C1_SDA*%
X128760000Y-95225000D02*
X129000000Y-95465000D01*
X128760000Y-95225000D02*
X129000000Y-94985000D01*
X129000000Y-95465000D02*
X129000000Y-100800000D01*
X129000000Y-94985000D02*
X129000000Y-82450000D01*
%TO.N,USART3_TX*%
X132500000Y-112150000D02*
X132500000Y-112990685D01*
X132500000Y-112990685D02*
X129250000Y-116240685D01*
X129250000Y-116240685D02*
X129250000Y-129500000D01*
%TO.N,USART3_RX*%
X130500000Y-116000000D02*
X130500000Y-129500000D01*
X133000000Y-113500000D02*
X130500000Y-116000000D01*
X133000000Y-112150000D02*
X133000000Y-113500000D01*
%TO.N,BUCK_FB*%
X156712500Y-118712500D02*
X156750000Y-118675000D01*
X154450000Y-118712500D02*
X156712500Y-118712500D01*
X156750000Y-118675000D02*
X158750000Y-118675000D01*
%TO.N,BUCK_EN*%
X154837500Y-116825000D02*
X154450000Y-116437500D01*
X158500000Y-116825000D02*
X154837500Y-116825000D01*
%TO.N,HSE_OUT*%
X122260000Y-105250000D02*
X124550000Y-105250000D01*
X124550000Y-105250000D02*
X124575000Y-105225000D01*
%TO.N,Net-(R7-Pad2)*%
X160750000Y-120325000D02*
X158750000Y-120325000D01*
%TO.N,+3.3VA*%
X124575000Y-108725000D02*
X122025000Y-108725000D01*
X122025000Y-108725000D02*
X122000000Y-108750000D01*
X120500000Y-108750000D02*
X122000000Y-108750000D01*
X119735000Y-109515000D02*
X120500000Y-108750000D01*
X119735000Y-110250000D02*
X119735000Y-109515000D01*
%TO.N,Net-(F1-Pad1)*%
X152950000Y-107950000D02*
X153125000Y-108125000D01*
X152950000Y-105187500D02*
X152950000Y-107950000D01*
%TD*%
M02*
