M48
; DRILL file {KiCad 7.0.5} date Sun Jul 30 01:34:09 2023
; FORMAT={-:-/ absolute / inch / decimal}
; #@! TF.CreationDate,2023-07-30T01:34:09+05:30
; #@! TF.GenerationSoftware,Kicad,Pcbnew,7.0.5
; #@! TF.FileFunction,Plated,1,4,PTH
FMAT,2
INCH
; #@! TA.AperFunction,Plated,PTH,ViaDrill
T1C0.0157
; #@! TA.AperFunction,Plated,PTH,ComponentDrill
T2C0.0177
; #@! TA.AperFunction,Plated,PTH,ComponentDrill
T3C0.0197
; #@! TA.AperFunction,Plated,PTH,ComponentDrill
T4C0.0236
; #@! TA.AperFunction,Plated,PTH,ComponentDrill
T5C0.0472
; #@! TA.AperFunction,Plated,PTH,ComponentDrill
T6C0.1693
%
G90
G05
T1
X4.502Y-3.8691
X4.5039Y-3.6909
X4.5659Y-4.1624
X4.622Y-4.2657
X4.6388Y-3.9705
X4.6762Y-4.31
X4.6781Y-4.3701
X4.7146Y-4.0748
X4.7264Y-4.4439
X4.7441Y-4.2156
X4.7667Y-3.8858
X4.7835Y-4.0059
X4.8041Y-4.2156
X4.814Y-4.0709
X4.8632Y-3.8494
X4.9626Y-4.498
X4.9803Y-3.8583
X5.0Y-3.751
X5.0207Y-3.8583
X5.0571Y-4.498
X5.1969Y-3.75
X5.2347Y-3.8173
X5.2362Y-4.0354
X5.315Y-4.4715
X5.3543Y-3.9833
X5.3602Y-4.5157
X5.3839Y-3.9173
X5.4016Y-4.4488
X5.4715Y-3.9508
X5.6083Y-4.685
X5.6083Y-4.7461
X5.6299Y-3.1457
X5.7126Y-4.8622
X5.7126Y-4.9911
X5.7303Y-3.1467
X5.7805Y-3.1467
X5.7923Y-4.9902
X5.7933Y-4.8593
X5.8287Y-3.1447
X5.8583Y-4.688
X5.8602Y-4.748
X5.8691Y-4.3858
X5.8711Y-4.4695
X5.9075Y-4.8268
X5.9075Y-4.9557
X5.9085Y-4.8888
X5.9085Y-5.0157
X5.9665Y-3.2195
X5.9675Y-3.3258
X6.0433Y-4.7175
X6.1348Y-4.7392
X6.1693Y-4.7717
X6.1929Y-4.4478
X6.2096Y-3.6663
X6.2116Y-4.2146
X6.2136Y-4.31
X6.2402Y-4.501
X6.2766Y-4.5335
X6.3661Y-3.6683
X6.3661Y-4.6722
T3
X5.0295Y-3.2461
X5.0394Y-5.0984
X5.0787Y-3.2461
X5.0886Y-5.0984
X5.128Y-3.2461
X5.1378Y-5.0984
X5.1772Y-3.2461
X5.187Y-5.0984
T4
X4.44Y-3.2785
X4.4412Y-5.0677
X4.4771Y-3.1888
X4.4771Y-3.3683
X4.4783Y-4.9779
X4.4783Y-5.1575
X4.5669Y-3.1516
X4.5669Y-3.4055
X4.5681Y-4.9407
X4.5681Y-5.1947
X4.6567Y-3.1888
X4.6567Y-3.3683
X4.6579Y-4.9779
X4.6579Y-5.1575
X4.6939Y-3.2785
X4.6951Y-5.0677
X6.2203Y-3.2862
X6.2215Y-5.06
X6.2574Y-3.1964
X6.2574Y-3.376
X6.2586Y-4.9703
X6.2586Y-5.1498
X6.3472Y-3.1592
X6.3472Y-3.4132
X6.3484Y-4.9331
X6.3484Y-5.187
X6.437Y-3.1964
X6.437Y-3.376
X6.4382Y-4.9703
X6.4382Y-5.1498
X6.4742Y-3.2862
X6.4754Y-5.06
T5
X6.4469Y-4.3996
X6.4469Y-4.5374
T6
X4.5669Y-3.2785
X4.5681Y-5.0677
X6.3472Y-3.2862
X6.3484Y-5.06
T2
G00X6.4992Y-3.5778
M15
G01X6.5307Y-3.5778
M16
G05
G00X6.5307Y-3.8593
M15
G01X6.4992Y-3.8593
M16
G05
T0
M30
