%TF.GenerationSoftware,KiCad,Pcbnew,7.0.5*%
%TF.CreationDate,2023-07-30T01:34:42+05:30*%
%TF.ProjectId,STM32F4_test1,53544d33-3246-4345-9f74-657374312e6b,rev?*%
%TF.SameCoordinates,Original*%
%TF.FileFunction,Copper,L4,Bot*%
%TF.FilePolarity,Positive*%
%FSLAX46Y46*%
G04 Gerber Fmt 4.6, Leading zero omitted, Abs format (unit mm)*
G04 Created by KiCad (PCBNEW 7.0.5) date 2023-07-30 01:34:42*
%MOMM*%
%LPD*%
G01*
G04 APERTURE LIST*
G04 Aperture macros list*
%AMRoundRect*
0 Rectangle with rounded corners*
0 $1 Rounding radius*
0 $2 $3 $4 $5 $6 $7 $8 $9 X,Y pos of 4 corners*
0 Add a 4 corners polygon primitive as box body*
4,1,4,$2,$3,$4,$5,$6,$7,$8,$9,$2,$3,0*
0 Add four circle primitives for the rounded corners*
1,1,$1+$1,$2,$3*
1,1,$1+$1,$4,$5*
1,1,$1+$1,$6,$7*
1,1,$1+$1,$8,$9*
0 Add four rect primitives between the rounded corners*
20,1,$1+$1,$2,$3,$4,$5,0*
20,1,$1+$1,$4,$5,$6,$7,0*
20,1,$1+$1,$6,$7,$8,$9,0*
20,1,$1+$1,$8,$9,$2,$3,0*%
G04 Aperture macros list end*
%TA.AperFunction,ComponentPad*%
%ADD10RoundRect,0.200000X0.200000X0.450000X-0.200000X0.450000X-0.200000X-0.450000X0.200000X-0.450000X0*%
%TD*%
%TA.AperFunction,ComponentPad*%
%ADD11O,0.800000X1.300000*%
%TD*%
%TA.AperFunction,ComponentPad*%
%ADD12C,0.900000*%
%TD*%
%TA.AperFunction,ComponentPad*%
%ADD13C,8.600000*%
%TD*%
%TA.AperFunction,ComponentPad*%
%ADD14R,2.400000X2.400000*%
%TD*%
%TA.AperFunction,ComponentPad*%
%ADD15C,2.400000*%
%TD*%
%TA.AperFunction,ComponentPad*%
%ADD16RoundRect,0.200000X-0.200000X-0.450000X0.200000X-0.450000X0.200000X0.450000X-0.200000X0.450000X0*%
%TD*%
%TA.AperFunction,ComponentPad*%
%ADD17O,1.900000X1.050000*%
%TD*%
%TA.AperFunction,ViaPad*%
%ADD18C,0.800000*%
%TD*%
%TA.AperFunction,Conductor*%
%ADD19C,0.260000*%
%TD*%
G04 APERTURE END LIST*
D10*
%TO.P,J3,1,Pin_1*%
%TO.N,+3.3V*%
X131500000Y-82450000D03*
D11*
%TO.P,J3,2,Pin_2*%
%TO.N,I2C1_SCL*%
X130250000Y-82450000D03*
%TO.P,J3,3,Pin_3*%
%TO.N,I2C1_SDA*%
X129000000Y-82450000D03*
%TO.P,J3,4,Pin_4*%
%TO.N,GND*%
X127750000Y-82450000D03*
%TD*%
D12*
%TO.P,H2,1,1*%
%TO.N,GND*%
X158025000Y-128525000D03*
X158969581Y-126244581D03*
X158969581Y-130805419D03*
X161250000Y-125300000D03*
D13*
X161250000Y-128525000D03*
D12*
X161250000Y-131750000D03*
X163530419Y-126244581D03*
X163530419Y-130805419D03*
X164475000Y-128525000D03*
%TD*%
D14*
%TO.P,J1,1,Pin_1*%
%TO.N,+12V*%
X163750000Y-115250000D03*
D15*
%TO.P,J1,2,Pin_2*%
%TO.N,GND*%
X163750000Y-111750000D03*
%TD*%
D12*
%TO.P,H4,1,1*%
%TO.N,GND*%
X112805419Y-128719581D03*
X113750000Y-126439162D03*
X113750000Y-131000000D03*
X116030419Y-125494581D03*
D13*
X116030419Y-128719581D03*
D12*
X116030419Y-131944581D03*
X118310838Y-126439162D03*
X118310838Y-131000000D03*
X119255419Y-128719581D03*
%TD*%
%TO.P,H1,1,1*%
%TO.N,GND*%
X157994581Y-83469581D03*
X158939162Y-81189162D03*
X158939162Y-85750000D03*
X161219581Y-80244581D03*
D13*
X161219581Y-83469581D03*
D12*
X161219581Y-86694581D03*
X163500000Y-81189162D03*
X163500000Y-85750000D03*
X164444581Y-83469581D03*
%TD*%
D16*
%TO.P,J4,1,Pin_1*%
%TO.N,+3.3V*%
X128000000Y-129500000D03*
D11*
%TO.P,J4,2,Pin_2*%
%TO.N,USART3_TX*%
X129250000Y-129500000D03*
%TO.P,J4,3,Pin_3*%
%TO.N,USART3_RX*%
X130500000Y-129500000D03*
%TO.P,J4,4,Pin_4*%
%TO.N,GND*%
X131750000Y-129500000D03*
%TD*%
D17*
%TO.P,J5,6,Shield*%
%TO.N,unconnected-(J5-Shield-Pad6)*%
X165480000Y-98025000D03*
X165480000Y-90875000D03*
%TD*%
D12*
%TO.P,H3,1,1*%
%TO.N,GND*%
X112775000Y-83275000D03*
X113719581Y-80994581D03*
X113719581Y-85555419D03*
X116000000Y-80050000D03*
D13*
X116000000Y-83275000D03*
D12*
X116000000Y-86500000D03*
X118280419Y-80994581D03*
X118280419Y-85555419D03*
X119225000Y-83275000D03*
%TD*%
D18*
%TO.N,GND*%
X143000000Y-79900000D03*
X145550000Y-79925000D03*
X146825000Y-79925000D03*
%TO.N,+3.3V*%
X148050000Y-79875000D03*
%TO.N,NRST*%
X132960287Y-96960287D03*
X133000000Y-102500000D03*
%TO.N,GND*%
X115975000Y-105725000D03*
X117400000Y-108350000D03*
X161700000Y-93175000D03*
X153500000Y-119825000D03*
X157725000Y-93125000D03*
%TO.N,+3.3V*%
X136000000Y-101175000D03*
%TO.N,GND*%
X150075000Y-127400000D03*
X150075000Y-124175000D03*
X159425000Y-115150000D03*
X149125000Y-113525000D03*
X157825000Y-109475000D03*
X157775000Y-107050000D03*
X149075000Y-111400000D03*
X158500000Y-114325000D03*
X157300000Y-112975000D03*
X161700000Y-118675000D03*
X150050000Y-125875000D03*
X150050000Y-122600000D03*
X151575000Y-84475000D03*
X136750000Y-99500000D03*
X138975000Y-100350000D03*
X137200000Y-113000000D03*
X136150000Y-114700000D03*
X126050000Y-114250000D03*
X120050000Y-112875000D03*
X122025000Y-107075000D03*
X120500000Y-107075000D03*
X119750000Y-103500000D03*
X117825000Y-100850000D03*
X121075000Y-98700000D03*
X121500000Y-101750000D03*
X114350000Y-98275000D03*
X127525000Y-98000000D03*
%TO.N,+3.3V*%
X156700000Y-121200000D03*
X155825000Y-120375000D03*
X147125000Y-126750000D03*
X145100000Y-126775000D03*
X147150000Y-123425000D03*
X145100000Y-123500000D03*
X148850000Y-120600000D03*
X148800000Y-119075000D03*
X142450000Y-119000000D03*
X142450000Y-120550000D03*
X126500000Y-98000000D03*
X122275000Y-103400000D03*
X118825000Y-111000000D03*
X118775000Y-109475000D03*
X128450000Y-114250000D03*
X135000000Y-113575000D03*
X151550000Y-81775000D03*
X114400000Y-93750000D03*
X123525000Y-97775000D03*
X127000000Y-95275000D03*
X132000000Y-95250000D03*
%TD*%
D19*
%TO.N,NRST*%
X133000000Y-102500000D02*
X133000000Y-97000000D01*
X133000000Y-97000000D02*
X132960287Y-96960287D01*
%TD*%
M02*
