%TF.GenerationSoftware,KiCad,Pcbnew,7.0.5*%
%TF.CreationDate,2023-07-30T01:34:42+05:30*%
%TF.ProjectId,STM32F4_test1,53544d33-3246-4345-9f74-657374312e6b,rev?*%
%TF.SameCoordinates,Original*%
%TF.FileFunction,Soldermask,Bot*%
%TF.FilePolarity,Negative*%
%FSLAX46Y46*%
G04 Gerber Fmt 4.6, Leading zero omitted, Abs format (unit mm)*
G04 Created by KiCad (PCBNEW 7.0.5) date 2023-07-30 01:34:42*
%MOMM*%
%LPD*%
G01*
G04 APERTURE LIST*
G04 Aperture macros list*
%AMRoundRect*
0 Rectangle with rounded corners*
0 $1 Rounding radius*
0 $2 $3 $4 $5 $6 $7 $8 $9 X,Y pos of 4 corners*
0 Add a 4 corners polygon primitive as box body*
4,1,4,$2,$3,$4,$5,$6,$7,$8,$9,$2,$3,0*
0 Add four circle primitives for the rounded corners*
1,1,$1+$1,$2,$3*
1,1,$1+$1,$4,$5*
1,1,$1+$1,$6,$7*
1,1,$1+$1,$8,$9*
0 Add four rect primitives between the rounded corners*
20,1,$1+$1,$2,$3,$4,$5,0*
20,1,$1+$1,$4,$5,$6,$7,0*
20,1,$1+$1,$6,$7,$8,$9,0*
20,1,$1+$1,$8,$9,$2,$3,0*%
G04 Aperture macros list end*
%ADD10RoundRect,0.200000X0.200000X0.450000X-0.200000X0.450000X-0.200000X-0.450000X0.200000X-0.450000X0*%
%ADD11O,0.800000X1.300000*%
%ADD12C,0.900000*%
%ADD13C,8.600000*%
%ADD14R,2.400000X2.400000*%
%ADD15C,2.400000*%
%ADD16RoundRect,0.200000X-0.200000X-0.450000X0.200000X-0.450000X0.200000X0.450000X-0.200000X0.450000X0*%
%ADD17O,1.900000X1.050000*%
G04 APERTURE END LIST*
D10*
%TO.C,J3*%
X131500000Y-82450000D03*
D11*
X130250000Y-82450000D03*
X129000000Y-82450000D03*
X127750000Y-82450000D03*
%TD*%
D12*
%TO.C,H2*%
X158025000Y-128525000D03*
X158969581Y-126244581D03*
X158969581Y-130805419D03*
X161250000Y-125300000D03*
D13*
X161250000Y-128525000D03*
D12*
X161250000Y-131750000D03*
X163530419Y-126244581D03*
X163530419Y-130805419D03*
X164475000Y-128525000D03*
%TD*%
D14*
%TO.C,J1*%
X163750000Y-115250000D03*
D15*
X163750000Y-111750000D03*
%TD*%
D12*
%TO.C,H4*%
X112805419Y-128719581D03*
X113750000Y-126439162D03*
X113750000Y-131000000D03*
X116030419Y-125494581D03*
D13*
X116030419Y-128719581D03*
D12*
X116030419Y-131944581D03*
X118310838Y-126439162D03*
X118310838Y-131000000D03*
X119255419Y-128719581D03*
%TD*%
%TO.C,H1*%
X157994581Y-83469581D03*
X158939162Y-81189162D03*
X158939162Y-85750000D03*
X161219581Y-80244581D03*
D13*
X161219581Y-83469581D03*
D12*
X161219581Y-86694581D03*
X163500000Y-81189162D03*
X163500000Y-85750000D03*
X164444581Y-83469581D03*
%TD*%
D16*
%TO.C,J4*%
X128000000Y-129500000D03*
D11*
X129250000Y-129500000D03*
X130500000Y-129500000D03*
X131750000Y-129500000D03*
%TD*%
D12*
%TO.C,SW1*%
X111395000Y-94500000D03*
X111395000Y-97500000D03*
%TD*%
D17*
%TO.C,J5*%
X165480000Y-98025000D03*
X165480000Y-90875000D03*
%TD*%
D12*
%TO.C,H3*%
X112775000Y-83275000D03*
X113719581Y-80994581D03*
X113719581Y-85555419D03*
X116000000Y-80050000D03*
D13*
X116000000Y-83275000D03*
D12*
X116000000Y-86500000D03*
X118280419Y-80994581D03*
X118280419Y-85555419D03*
X119225000Y-83275000D03*
%TD*%
M02*
