%TF.GenerationSoftware,KiCad,Pcbnew,7.0.5*%
%TF.CreationDate,2023-07-30T01:34:42+05:30*%
%TF.ProjectId,STM32F4_test1,53544d33-3246-4345-9f74-657374312e6b,rev?*%
%TF.SameCoordinates,Original*%
%TF.FileFunction,Paste,Top*%
%TF.FilePolarity,Positive*%
%FSLAX46Y46*%
G04 Gerber Fmt 4.6, Leading zero omitted, Abs format (unit mm)*
G04 Created by KiCad (PCBNEW 7.0.5) date 2023-07-30 01:34:42*
%MOMM*%
%LPD*%
G01*
G04 APERTURE LIST*
G04 Aperture macros list*
%AMRoundRect*
0 Rectangle with rounded corners*
0 $1 Rounding radius*
0 $2 $3 $4 $5 $6 $7 $8 $9 X,Y pos of 4 corners*
0 Add a 4 corners polygon primitive as box body*
4,1,4,$2,$3,$4,$5,$6,$7,$8,$9,$2,$3,0*
0 Add four circle primitives for the rounded corners*
1,1,$1+$1,$2,$3*
1,1,$1+$1,$4,$5*
1,1,$1+$1,$6,$7*
1,1,$1+$1,$8,$9*
0 Add four rect primitives between the rounded corners*
20,1,$1+$1,$2,$3,$4,$5,0*
20,1,$1+$1,$4,$5,$6,$7,0*
20,1,$1+$1,$6,$7,$8,$9,0*
20,1,$1+$1,$8,$9,$2,$3,0*%
G04 Aperture macros list end*
%ADD10R,0.740000X2.400000*%
%ADD11R,5.500000X2.150000*%
%ADD12RoundRect,0.140000X0.140000X0.170000X-0.140000X0.170000X-0.140000X-0.170000X0.140000X-0.170000X0*%
%ADD13RoundRect,0.250000X0.325000X0.650000X-0.325000X0.650000X-0.325000X-0.650000X0.325000X-0.650000X0*%
%ADD14RoundRect,0.135000X0.135000X0.185000X-0.135000X0.185000X-0.135000X-0.185000X0.135000X-0.185000X0*%
%ADD15RoundRect,0.218750X0.381250X-0.218750X0.381250X0.218750X-0.381250X0.218750X-0.381250X-0.218750X0*%
%ADD16RoundRect,0.147500X-0.147500X-0.172500X0.147500X-0.172500X0.147500X0.172500X-0.147500X0.172500X0*%
%ADD17RoundRect,0.200000X-0.275000X0.200000X-0.275000X-0.200000X0.275000X-0.200000X0.275000X0.200000X0*%
%ADD18RoundRect,0.150000X0.512500X0.150000X-0.512500X0.150000X-0.512500X-0.150000X0.512500X-0.150000X0*%
%ADD19RoundRect,0.200000X0.275000X-0.200000X0.275000X0.200000X-0.275000X0.200000X-0.275000X-0.200000X0*%
%ADD20RoundRect,0.140000X-0.140000X-0.170000X0.140000X-0.170000X0.140000X0.170000X-0.140000X0.170000X0*%
%ADD21RoundRect,0.218750X0.256250X-0.218750X0.256250X0.218750X-0.256250X0.218750X-0.256250X-0.218750X0*%
%ADD22RoundRect,0.225000X-0.225000X-0.250000X0.225000X-0.250000X0.225000X0.250000X-0.225000X0.250000X0*%
%ADD23R,1.200000X1.400000*%
%ADD24RoundRect,0.218750X0.218750X0.256250X-0.218750X0.256250X-0.218750X-0.256250X0.218750X-0.256250X0*%
%ADD25RoundRect,0.150000X0.150000X-0.512500X0.150000X0.512500X-0.150000X0.512500X-0.150000X-0.512500X0*%
%ADD26RoundRect,0.225000X-0.225000X-0.375000X0.225000X-0.375000X0.225000X0.375000X-0.225000X0.375000X0*%
%ADD27RoundRect,0.140000X0.170000X-0.140000X0.170000X0.140000X-0.170000X0.140000X-0.170000X-0.140000X0*%
%ADD28RoundRect,0.250000X-0.375000X-0.625000X0.375000X-0.625000X0.375000X0.625000X-0.375000X0.625000X0*%
%ADD29RoundRect,0.250000X-0.325000X-0.650000X0.325000X-0.650000X0.325000X0.650000X-0.325000X0.650000X0*%
%ADD30RoundRect,0.075000X-0.700000X-0.075000X0.700000X-0.075000X0.700000X0.075000X-0.700000X0.075000X0*%
%ADD31RoundRect,0.075000X-0.075000X-0.700000X0.075000X-0.700000X0.075000X0.700000X-0.075000X0.700000X0*%
%ADD32RoundRect,0.225000X0.250000X-0.225000X0.250000X0.225000X-0.250000X0.225000X-0.250000X-0.225000X0*%
%ADD33RoundRect,0.225000X0.225000X0.250000X-0.225000X0.250000X-0.225000X-0.250000X0.225000X-0.250000X0*%
%ADD34R,0.800000X1.000000*%
%ADD35R,1.500000X0.700000*%
%ADD36R,1.400000X0.400000*%
%ADD37R,1.450000X1.150000*%
%ADD38R,1.900000X1.750000*%
%ADD39RoundRect,0.135000X-0.135000X-0.185000X0.135000X-0.185000X0.135000X0.185000X-0.135000X0.185000X0*%
%ADD40RoundRect,0.150000X-0.150000X0.587500X-0.150000X-0.587500X0.150000X-0.587500X0.150000X0.587500X0*%
%ADD41RoundRect,0.200000X0.200000X0.275000X-0.200000X0.275000X-0.200000X-0.275000X0.200000X-0.275000X0*%
G04 APERTURE END LIST*
D10*
%TO.C,J2*%
X148080000Y-81550000D03*
X148080000Y-85450000D03*
X146810000Y-81550000D03*
X146810000Y-85450000D03*
X145540000Y-81550000D03*
X145540000Y-85450000D03*
X144270000Y-81550000D03*
X144270000Y-85450000D03*
X143000000Y-81550000D03*
X143000000Y-85450000D03*
%TD*%
D11*
%TO.C,L2*%
X145625000Y-116012500D03*
X145625000Y-119862500D03*
%TD*%
D12*
%TO.C,C12*%
X118350000Y-107600000D03*
X117390000Y-107600000D03*
%TD*%
D13*
%TO.C,C15*%
X149050000Y-123437500D03*
X146100000Y-123437500D03*
%TD*%
D12*
%TO.C,C5*%
X127730000Y-114250000D03*
X126770000Y-114250000D03*
%TD*%
D14*
%TO.C,R2*%
X122260000Y-105500000D03*
X121240000Y-105500000D03*
%TD*%
D15*
%TO.C,FB1*%
X153125000Y-110250000D03*
X153125000Y-108125000D03*
%TD*%
D16*
%TO.C,L1*%
X118765000Y-110250000D03*
X119735000Y-110250000D03*
%TD*%
D17*
%TO.C,R4*%
X156500000Y-115175000D03*
X156500000Y-116825000D03*
%TD*%
%TO.C,R7*%
X158750000Y-118675000D03*
X158750000Y-120325000D03*
%TD*%
D18*
%TO.C,U2*%
X158937500Y-96087500D03*
X158937500Y-95137500D03*
X158937500Y-94187500D03*
X156662500Y-94187500D03*
X156662500Y-95137500D03*
X156662500Y-96087500D03*
%TD*%
D19*
%TO.C,R8*%
X160750000Y-120325000D03*
X160750000Y-118675000D03*
%TD*%
D13*
%TO.C,C17*%
X149050000Y-126687500D03*
X146100000Y-126687500D03*
%TD*%
D20*
%TO.C,C11*%
X116870000Y-101600000D03*
X117830000Y-101600000D03*
%TD*%
D21*
%TO.C,D1*%
X123250000Y-114550000D03*
X123250000Y-112975000D03*
%TD*%
D14*
%TO.C,R9*%
X131270000Y-95225000D03*
X130250000Y-95225000D03*
%TD*%
D22*
%TO.C,C2*%
X133725000Y-114725000D03*
X135275000Y-114725000D03*
%TD*%
D19*
%TO.C,R6*%
X156750000Y-120325000D03*
X156750000Y-118675000D03*
%TD*%
D23*
%TO.C,Y1*%
X117000000Y-103500000D03*
X117000000Y-105700000D03*
X118700000Y-105700000D03*
X118700000Y-103500000D03*
%TD*%
D24*
%TO.C,D4*%
X154037500Y-81750000D03*
X152462500Y-81750000D03*
%TD*%
D25*
%TO.C,MP2359DJ-LF-Z1*%
X152550000Y-118712500D03*
X153500000Y-118712500D03*
X154450000Y-118712500D03*
X154450000Y-116437500D03*
X153500000Y-116437500D03*
X152550000Y-116437500D03*
%TD*%
D26*
%TO.C,D3*%
X158000000Y-105250000D03*
X161300000Y-105250000D03*
%TD*%
D27*
%TO.C,C4*%
X122250000Y-102705000D03*
X122250000Y-101745000D03*
%TD*%
D28*
%TO.C,F1*%
X152950000Y-105187500D03*
X155750000Y-105187500D03*
%TD*%
D27*
%TO.C,C10*%
X122000000Y-108750000D03*
X122000000Y-107790000D03*
%TD*%
%TO.C,C7*%
X136750000Y-101185000D03*
X136750000Y-100225000D03*
%TD*%
D17*
%TO.C,R3*%
X121000000Y-112900000D03*
X121000000Y-114550000D03*
%TD*%
D29*
%TO.C,C13*%
X153275000Y-112937500D03*
X156225000Y-112937500D03*
%TD*%
D20*
%TO.C,C6*%
X135520000Y-112975000D03*
X136480000Y-112975000D03*
%TD*%
D27*
%TO.C,C9*%
X120500000Y-108750000D03*
X120500000Y-107790000D03*
%TD*%
D30*
%TO.C,U1*%
X124575000Y-102725000D03*
X124575000Y-103225000D03*
X124575000Y-103725000D03*
X124575000Y-104225000D03*
X124575000Y-104725000D03*
X124575000Y-105225000D03*
X124575000Y-105725000D03*
X124575000Y-106225000D03*
X124575000Y-106725000D03*
X124575000Y-107225000D03*
X124575000Y-107725000D03*
X124575000Y-108225000D03*
X124575000Y-108725000D03*
X124575000Y-109225000D03*
X124575000Y-109725000D03*
X124575000Y-110225000D03*
D31*
X126500000Y-112150000D03*
X127000000Y-112150000D03*
X127500000Y-112150000D03*
X128000000Y-112150000D03*
X128500000Y-112150000D03*
X129000000Y-112150000D03*
X129500000Y-112150000D03*
X130000000Y-112150000D03*
X130500000Y-112150000D03*
X131000000Y-112150000D03*
X131500000Y-112150000D03*
X132000000Y-112150000D03*
X132500000Y-112150000D03*
X133000000Y-112150000D03*
X133500000Y-112150000D03*
X134000000Y-112150000D03*
D30*
X135925000Y-110225000D03*
X135925000Y-109725000D03*
X135925000Y-109225000D03*
X135925000Y-108725000D03*
X135925000Y-108225000D03*
X135925000Y-107725000D03*
X135925000Y-107225000D03*
X135925000Y-106725000D03*
X135925000Y-106225000D03*
X135925000Y-105725000D03*
X135925000Y-105225000D03*
X135925000Y-104725000D03*
X135925000Y-104225000D03*
X135925000Y-103725000D03*
X135925000Y-103225000D03*
X135925000Y-102725000D03*
D31*
X134000000Y-100800000D03*
X133500000Y-100800000D03*
X133000000Y-100800000D03*
X132500000Y-100800000D03*
X132000000Y-100800000D03*
X131500000Y-100800000D03*
X131000000Y-100800000D03*
X130500000Y-100800000D03*
X130000000Y-100800000D03*
X129500000Y-100800000D03*
X129000000Y-100800000D03*
X128500000Y-100800000D03*
X128000000Y-100800000D03*
X127500000Y-100800000D03*
X127000000Y-100800000D03*
X126500000Y-100800000D03*
%TD*%
D32*
%TO.C,C14*%
X150300000Y-118462500D03*
X150300000Y-116912500D03*
%TD*%
D26*
%TO.C,D2*%
X145750000Y-112437500D03*
X149050000Y-112437500D03*
%TD*%
D32*
%TO.C,C1*%
X139000000Y-102775000D03*
X139000000Y-101225000D03*
%TD*%
D20*
%TO.C,C8*%
X126520000Y-98750000D03*
X127480000Y-98750000D03*
%TD*%
D33*
%TO.C,C3*%
X123525000Y-98725000D03*
X121975000Y-98725000D03*
%TD*%
D34*
%TO.C,SW1*%
X112505000Y-92350000D03*
X110295000Y-92350000D03*
X112505000Y-99650000D03*
X110295000Y-99650000D03*
D35*
X113155000Y-93750000D03*
X113155000Y-96750000D03*
X113155000Y-98250000D03*
%TD*%
D36*
%TO.C,J5*%
X162830000Y-95750000D03*
X162830000Y-95100000D03*
X162830000Y-94450000D03*
X162830000Y-93800000D03*
X162830000Y-93150000D03*
D37*
X163250000Y-96770000D03*
D38*
X165480000Y-95575000D03*
X165480000Y-93325000D03*
D37*
X163250000Y-92130000D03*
%TD*%
D39*
%TO.C,R10*%
X127740000Y-95225000D03*
X128760000Y-95225000D03*
%TD*%
D40*
%TO.C,Q1*%
X157762500Y-108250000D03*
X155862500Y-108250000D03*
X156812500Y-110125000D03*
%TD*%
D14*
%TO.C,R1*%
X116760000Y-96975000D03*
X115740000Y-96975000D03*
%TD*%
D19*
%TO.C,R5*%
X158500000Y-116825000D03*
X158500000Y-115175000D03*
%TD*%
D41*
%TO.C,R11*%
X154075000Y-84500000D03*
X152425000Y-84500000D03*
%TD*%
M02*
